<?xml version="1.0" encoding="UTF-8"?>
<svg version="1.1" xmlns="http://www.w3.org/2000/svg" width="180" height="180">
<path d="M0 0 C59.4 0 118.8 0 180 0 C180 59.4 180 118.8 180 180 C120.6 180 61.2 180 0 180 C0 120.6 0 61.2 0 0 Z " fill="#FDCC00" transform="translate(0,0)"/>
<path d="M0 0 C1.03833984 0.61681641 1.03833984 0.61681641 2.09765625 1.24609375 C2.80019531 1.64699219 3.50273438 2.04789063 4.2265625 2.4609375 C13.20098463 8.33603358 17.85474669 18.03119479 20.09765625 28.24609375 C20.50107267 31.71803946 20.57588458 35.12815483 20.53515625 38.62109375 C20.52758301 39.53938965 20.52000977 40.45768555 20.51220703 41.40380859 C20.17648587 55.27619915 14.48937025 68.0256991 5.09765625 78.24609375 C5.96777344 78.48392578 5.96777344 78.48392578 6.85546875 78.7265625 C14.47348835 81.00191159 19.03081198 83.92331796 22.97265625 90.87109375 C25.84386113 97.12455939 26.31868137 103.03048747 24.3984375 109.66015625 C19.39596681 121.94470453 10.21354068 129.98715824 -1.38671875 135.88671875 C-10.91618533 139.57144583 -19.85612515 140.70834667 -30.02734375 140.55859375 C-31.12949219 140.56181641 -32.23164062 140.56503906 -33.3671875 140.56835938 C-40.1028101 140.52441403 -46.35929437 139.85469314 -52.90234375 138.24609375 C-53.19109375 138.86484375 -53.47984375 139.48359375 -53.77734375 140.12109375 C-54.90234375 142.24609375 -54.90234375 142.24609375 -56.90234375 144.24609375 C-59.93998991 144.75041338 -62.85923514 144.69552082 -65.90234375 144.24609375 C-68.9345005 142.04778011 -69.71888773 140.79646181 -70.90234375 137.24609375 C-70.94188609 134.9130955 -70.94636107 132.57901186 -70.90234375 130.24609375 C-71.47984375 130.16359375 -72.05734375 130.08109375 -72.65234375 129.99609375 C-75.67141654 128.98973615 -76.98424272 127.78072726 -78.90234375 125.24609375 C-79.46484375 122.24609375 -79.46484375 122.24609375 -78.90234375 119.24609375 C-78.08483643 118.6540918 -77.2673291 118.06208984 -76.42504883 117.45214844 C-73.66113285 115.45502442 -73.66113285 115.45502442 -73.15112305 112.31347656 C-73.09351807 111.20327148 -73.03591309 110.09306641 -72.9765625 108.94921875 C-72.90244141 107.74394531 -72.82832031 106.53867188 -72.75195312 105.296875 C-72.69845703 104.04261719 -72.64496094 102.78835937 -72.58984375 101.49609375 C-72.51701172 100.22636719 -72.44417969 98.95664063 -72.36914062 97.6484375 C-72.19243381 94.51483668 -72.03769631 91.38170857 -71.90234375 88.24609375 C-72.86333984 87.82263672 -72.86333984 87.82263672 -73.84375 87.390625 C-75.90234375 86.24609375 -75.90234375 86.24609375 -76.83984375 83.93359375 C-76.90234375 81.24609375 -76.90234375 81.24609375 -75.42732239 78.99105835 C-73.55846239 75.62710662 -73.54203629 73.4720046 -73.56518555 69.63916016 C-73.56475754 68.32074127 -73.56432953 67.00232239 -73.56388855 65.64395142 C-73.57031057 64.94412769 -73.5767326 64.24430397 -73.58334923 63.52327347 C-73.60179798 61.31952813 -73.59903665 59.11672893 -73.59028625 56.91293335 C-73.56852725 50.65013916 -73.57935162 44.38771087 -73.61743164 38.125 C-73.639287 34.2869238 -73.6319372 30.44977947 -73.60697365 26.6117363 C-73.60339315 25.15497621 -73.61097275 23.69814195 -73.63022423 22.24150467 C-73.79620893 9.43360201 -73.79620893 9.43360201 -69.98364258 4.86083984 C-66.52369074 1.57218256 -63.81152957 0.82151842 -58.9453125 0.91015625 C-56.90234375 1.24609375 -56.90234375 1.24609375 -53.90234375 3.24609375 C-51.21581398 7.2758884 -51.49889801 9.48543406 -51.90234375 14.24609375 C-51.29648438 13.58222656 -50.690625 12.91835938 -50.06640625 12.234375 C-44.5103419 6.37913795 -39.4532004 2.169006 -31.90234375 -0.75390625 C-30.99484375 -1.11742188 -30.08734375 -1.4809375 -29.15234375 -1.85546875 C-20.13325256 -4.34872713 -8.43371779 -4.18069373 0 0 Z " fill="#E9549E" transform="translate(117.90234375,18.75390625)"/>
<path d="M0 0 C4.95882715 2.41501322 6.87105723 6.4797641 8.7421875 11.37890625 C11.88050867 20.79386976 11.14225727 35.18820432 7.05859375 44.15234375 C2.45748466 51.93463508 -2.48260819 56.00595944 -11.2578125 58.37890625 C-18.69616875 60.26668385 -25.73017573 60.63047658 -33.3828125 60.50390625 C-34.4346875 60.49488281 -35.4865625 60.48585937 -36.5703125 60.4765625 C-39.13306128 60.45326478 -41.69530762 60.42055737 -44.2578125 60.37890625 C-45.38143757 40.62615372 -42.28655387 24.89801807 -28.80078125 9.58984375 C-20.41005098 0.85945873 -12.3247374 -3.39036894 0 0 Z " fill="#35C659" transform="translate(109.2578125,32.62109375)"/>
<path d="M0 0 C1.0832959 -0.00225586 2.1665918 -0.00451172 3.28271484 -0.00683594 C5.0299585 0.00041504 5.0299585 0.00041504 6.8125 0.0078125 C7.99408691 0.01264648 9.17567383 0.01748047 10.39306641 0.02246094 C43.87463518 0.2505681 43.87463518 0.2505681 52.625 7.4453125 C54.27385675 11.17693568 53.90901538 13.22647645 52.8125 17.1328125 C47.95492744 26.65365471 38.48826858 30.78299469 28.8125 34.1328125 C17.77465654 37.08738676 4.00225469 36.22768985 -6.1875 31.1328125 C-6.21215622 26.87866627 -6.23033899 22.62455752 -6.24243164 18.37036133 C-6.24747101 16.92211177 -6.25430253 15.47386733 -6.26293945 14.02563477 C-6.27502247 11.94806662 -6.28073211 9.87056553 -6.28515625 7.79296875 C-6.29039307 6.54136963 -6.29562988 5.28977051 -6.30102539 4.00024414 C-6.11028812 -0.81741008 -4.33499805 0.00501073 0 0 Z " fill="#36C659" transform="translate(70.1875,107.8671875)"/>
<path d="M0 0 C3.78136892 3.46678984 6.08299682 6.57834146 8.1875 11.25 C8.67605469 12.30703125 9.16460937 13.3640625 9.66796875 14.453125 C12.4971635 21.98658198 13.38909693 29.16783222 13.375 37.1875 C13.37411377 38.10152588 13.37322754 39.01555176 13.37231445 39.95727539 C13.19489048 50.20193391 10.74243691 58.88201959 6 68 C5.67 68 5.34 68 5 68 C4.91363281 67.443125 4.82726562 66.88625 4.73828125 66.3125 C3.51126322 59.64832869 1.52171564 53.80881774 -3.9296875 49.4609375 C-7.44182039 47.19461779 -11.03771777 45.36203452 -15 44 C-13.63635657 41.10468124 -12.05144248 38.59673253 -10.1875 36 C-4.17486046 27.11367244 -1.04960478 17.86650579 -0.4375 7.25 C-0.39431641 6.55261719 -0.35113281 5.85523438 -0.30664062 5.13671875 C-0.20110404 3.42468078 -0.1001009 1.71236439 0 0 Z " fill="#37C659" transform="translate(138,53)"/>
<path d="M0 0 C0.33 0 0.66 0 1 0 C1.07424697 6.03228065 1.1286483 12.06429432 1.16479492 18.09692383 C1.17986622 20.14840326 1.20032682 22.19985056 1.22631836 24.2512207 C1.26277424 27.20271748 1.27974306 30.15378763 1.29296875 33.10546875 C1.30845261 34.02023483 1.32393646 34.93500092 1.33988953 35.87748718 C1.34121625 40.91588622 0.93397118 43.74865434 -2 48 C-1.44586908 51.24720222 -1.44586908 51.24720222 0 54 C0.66 54.33 1.32 54.66 2 55 C2.05401695 57.91691525 2.09368066 60.83282724 2.125 63.75 C2.15013672 64.9875 2.15013672 64.9875 2.17578125 66.25 C2.18222656 67.04921875 2.18867187 67.8484375 2.1953125 68.671875 C2.20578613 69.4050293 2.21625977 70.13818359 2.22705078 70.89355469 C1.96777544 73.29896076 1.19225925 74.91251494 0 77 C-12.02920731 61.33083082 -14.28375006 46.28135217 -13 27 C-11.41270517 17.42842093 -6.94174114 6.94174114 0 0 Z " fill="#37C558" transform="translate(44,52)"/>
<path d="M0 0 C1.65 1.65 3.3 3.3 5 5 C4.01 5.33 3.02 5.66 2 6 C1.34 7.32 0.68 8.64 0 10 C0 6.7 0 3.4 0 0 Z " fill="#64B661" transform="translate(138,53)"/>
<path d="M0 0 C0 3.51716303 -0.82445585 4.37121748 -3 7 C-3.99 6.67 -4.98 6.34 -6 6 C-6 5.34 -6 4.68 -6 4 C-4.03852126 2.61061923 -2.03833424 1.2739589 0 0 Z " fill="#FDC71A" transform="translate(126,148)"/>
</svg>
